<svg width="24" height="24" viewBox="0 0 24 24" fill="none" xmlns="http://www.w3.org/2000/svg">
<path fill-rule="evenodd" clip-rule="evenodd" d="M2.4505 1.97111C3.62879 0.70736 5.30665 0 7.28754 0H17.3803C19.3658 0 21.044 0.70701 22.2212 1.97163C23.3916 3.22899 24 4.96459 24 6.91189V16.4214C24 18.3687 23.3916 20.1044 22.221 21.3617C21.0436 22.6264 19.3652 23.3333 17.3792 23.3333H7.28754C5.302 23.3333 3.62365 22.6263 2.44617 21.3618C1.27542 20.1045 0.666687 18.3688 0.666687 16.4214V6.91189C0.666687 4.96335 1.27871 3.22789 2.4505 1.97111ZM3.76328 3.19511C2.95266 4.06452 2.46156 5.33628 2.46156 6.91189V16.4214C2.46156 17.9982 2.95071 19.2698 3.75975 20.1387C4.56207 21.0003 5.74542 21.5385 7.28754 21.5385H17.3792C18.9219 21.5385 20.1052 21.0003 20.9073 20.1387C21.7162 19.2699 22.2051 17.9983 22.2051 16.4214V6.91189C22.2051 5.33504 21.7162 4.06341 20.9074 3.19458C20.1054 2.33302 18.9224 1.79487 17.3803 1.79487H7.28754C5.75124 1.79487 4.5674 2.33266 3.76328 3.19511Z" fill="white"/>
<path fill-rule="evenodd" clip-rule="evenodd" d="M7.14774 15.1568C7.64338 15.1568 8.04518 15.5586 8.04518 16.0542V17.6497C8.04518 18.1453 7.64338 18.5471 7.14774 18.5471C6.6521 18.5471 6.25031 18.1453 6.25031 17.6497V16.0542C6.25031 15.5586 6.6521 15.1568 7.14774 15.1568Z" fill="white"/>
<path fill-rule="evenodd" clip-rule="evenodd" d="M12.733 13.5613C13.2286 13.5613 13.6304 13.9631 13.6304 14.4588V17.6497C13.6304 18.1453 13.2286 18.5471 12.733 18.5471C12.2374 18.5471 11.8356 18.1453 11.8356 17.6497V14.4588C11.8356 13.9631 12.2374 13.5613 12.733 13.5613Z" fill="white"/>
<path fill-rule="evenodd" clip-rule="evenodd" d="M17.5189 11.168C18.0145 11.168 18.4163 11.5698 18.4163 12.0655V17.6495C18.4163 18.1452 18.0145 18.5469 17.5189 18.5469C17.0233 18.5469 16.6215 18.1452 16.6215 17.6495V12.0655C16.6215 11.5698 17.0233 11.168 17.5189 11.168Z" fill="white"/>
<path fill-rule="evenodd" clip-rule="evenodd" d="M18.1171 5.01549C18.4861 5.3463 18.5172 5.91368 18.1863 6.28276L17.7172 6.80616C17.7171 6.80625 17.717 6.80635 17.7169 6.80645C15.0062 9.83321 11.385 11.9749 7.35643 12.9384C6.87438 13.0536 6.39016 12.7563 6.27488 12.2743C6.1596 11.7922 6.45692 11.308 6.93897 11.1927C10.6205 10.3123 13.9184 8.35758 16.3801 5.60874L16.8498 5.08476C17.1806 4.71568 17.748 4.68467 18.1171 5.01549Z" fill="white"/>
<path fill-rule="evenodd" clip-rule="evenodd" d="M14.2285 5.68375C14.2285 5.18811 14.6303 4.78632 15.126 4.78632H17.5191C18.0148 4.78632 18.4165 5.18811 18.4165 5.68375V8.87463C18.4165 9.37028 18.0148 9.77207 17.5191 9.77207C17.0235 9.77207 16.6217 9.37028 16.6217 8.87463V6.58119H15.126C14.6303 6.58119 14.2285 6.17939 14.2285 5.68375Z" fill="white"/>
</svg>
