<svg width="27" height="27" viewBox="0 0 27 27" fill="none" xmlns="http://www.w3.org/2000/svg">
<path fill-rule="evenodd" clip-rule="evenodd" d="M2.75679 2.74752C4.08236 1.32581 5.96996 0.530029 8.19846 0.530029H19.5528C21.7866 0.530029 23.6744 1.32542 24.9988 2.74811C26.3156 4.16265 27 6.1152 27 8.30591V19.0041C27 21.1948 26.3156 23.1474 24.9986 24.562C23.6741 25.9847 21.7859 26.78 19.5516 26.78H8.19846C5.96473 26.78 4.07658 25.9847 2.75192 24.562C1.43482 23.1475 0.75 21.195 0.75 19.0041V8.30591C0.75 6.1138 1.43852 4.1614 2.75679 2.74752ZM4.23366 4.12453C3.32172 5.10261 2.76923 6.53335 2.76923 8.30591V19.0041C2.76923 20.778 3.31952 22.2085 4.2297 23.186C5.13231 24.1554 6.46358 24.7608 8.19846 24.7608H19.5516C21.2871 24.7608 22.6183 24.1553 23.5207 23.1861C24.4307 22.2086 24.9808 20.7781 24.9808 19.0041V8.30591C24.9808 6.53195 24.4307 5.10137 23.5208 4.12394C22.6186 3.15467 21.2877 2.54926 19.5528 2.54926H8.19846C6.47012 2.54926 5.1383 3.15428 4.23366 4.12453Z" fill="white"/>
<path fill-rule="evenodd" clip-rule="evenodd" d="M8.04123 17.5815C8.59883 17.5815 9.05085 18.0336 9.05085 18.5912V20.386C9.05085 20.9436 8.59883 21.3956 8.04123 21.3956C7.48364 21.3956 7.03162 20.9436 7.03162 20.386V18.5912C7.03162 18.0336 7.48364 17.5815 8.04123 17.5815Z" fill="white"/>
<path fill-rule="evenodd" clip-rule="evenodd" d="M14.3246 15.7866C14.8822 15.7866 15.3342 16.2386 15.3342 16.7962V20.386C15.3342 20.9436 14.8822 21.3956 14.3246 21.3956C13.767 21.3956 13.315 20.9436 13.315 20.386V16.7962C13.315 16.2386 13.767 15.7866 14.3246 15.7866Z" fill="white"/>
<path fill-rule="evenodd" clip-rule="evenodd" d="M19.7088 13.094C20.2664 13.094 20.7184 13.546 20.7184 14.1036V20.3857C20.7184 20.9433 20.2664 21.3953 19.7088 21.3953C19.1512 21.3953 18.6992 20.9433 18.6992 20.3857V14.1036C18.6992 13.546 19.1512 13.094 19.7088 13.094Z" fill="white"/>
<path fill-rule="evenodd" clip-rule="evenodd" d="M20.3816 6.17237C20.7969 6.54454 20.8317 7.18284 20.4596 7.59805L19.9318 8.18687C19.9317 8.18698 19.9316 8.18709 19.9315 8.1872C16.8819 11.5923 12.8081 14.0018 8.27592 15.0856C7.73361 15.2153 7.18886 14.8808 7.05917 14.3385C6.92948 13.7962 7.26397 13.2514 7.80627 13.1217C11.9479 12.1313 15.6581 9.93223 18.4276 6.83977L18.956 6.2503C19.3281 5.83509 19.9664 5.8002 20.3816 6.17237Z" fill="white"/>
<path fill-rule="evenodd" clip-rule="evenodd" d="M16.0071 6.92417C16.0071 6.36657 16.4591 5.91455 17.0167 5.91455H19.709C20.2666 5.91455 20.7186 6.36657 20.7186 6.92417V10.5139C20.7186 11.0715 20.2666 11.5235 19.709 11.5235C19.1514 11.5235 18.6994 11.0715 18.6994 10.5139V7.93378H17.0167C16.4591 7.93378 16.0071 7.48176 16.0071 6.92417Z" fill="white"/>
</svg>
