<svg width="37" height="37" viewBox="0 0 37 37" fill="none" xmlns="http://www.w3.org/2000/svg">
<path fill-rule="evenodd" clip-rule="evenodd" d="M17.5604 13.0835C18.3038 13.0835 18.9065 13.6862 18.9065 14.4297L18.9065 27.6948C18.9065 28.4383 18.3038 29.041 17.5604 29.041C16.8169 29.041 16.2142 28.4383 16.2142 27.6948L16.2142 14.4297C16.2142 13.6862 16.8169 13.0835 17.5604 13.0835ZM10.0224 15.2665C10.7659 15.2665 11.3686 15.8692 11.3686 16.6126V27.695C11.3686 28.4385 10.7659 29.0412 10.0224 29.0412C9.27896 29.0412 8.67627 28.4385 8.67627 27.695V16.6126C8.67627 15.8692 9.27896 15.2665 10.0224 15.2665ZM24.9757 9.29185C25.7191 9.29185 26.3218 9.89455 26.3218 10.638V27.6943C26.3218 28.4378 25.7191 29.0405 24.9757 29.0405C24.2322 29.0405 23.6295 28.4378 23.6295 27.6943V10.638C23.6295 9.89455 24.2322 9.29185 24.9757 9.29185Z" fill="white"/>
<path fill-rule="evenodd" clip-rule="evenodd" d="M2.67565 4.957C4.44309 3.0611 6.95991 2.00005 9.93124 2.00005H17.8909C18.6343 2.00005 19.237 2.60274 19.237 3.3462C19.237 4.08966 18.6343 4.69235 17.8909 4.69235H9.93124C7.62682 4.69235 5.8511 5.49903 4.64494 6.79286C3.42901 8.09715 2.6923 10.0052 2.6923 12.3696V26.6322C2.6923 28.9982 3.42607 30.9055 4.63953 32.2086C5.84291 33.5008 7.61791 34.3077 9.93124 34.3077H25.0687C27.383 34.3077 29.1579 33.5007 30.361 32.2086C31.5742 30.9057 32.3076 28.9983 32.3076 26.6322V19.5491C32.3076 18.8056 32.9103 18.2029 33.6538 18.2029C34.3972 18.2029 34.9999 18.8056 34.9999 19.5491V26.6322C34.9999 29.5539 34.0874 32.1574 32.3314 34.0433C30.5652 35.9401 28.0476 37 25.0687 37H9.93124C6.95312 37 4.43557 35.9401 2.66927 34.0434C0.913049 32.1575 0 29.554 0 26.6322V12.3696C0 9.44606 0.917959 6.84243 2.67565 4.957Z" fill="white"/>
<path fill-rule="evenodd" clip-rule="evenodd" d="M33.9335 2.55031L32.8369 0.220314C32.799 0.142959 32.7396 0.0816096 32.665 0.0429246C32.5753 -0.0050904 32.4717 -0.0130854 32.377 0.0202596C32.2822 0.0536046 32.2039 0.125619 32.1597 0.220314L31.063 2.54765C31.0074 2.66501 30.9025 2.74637 30.7788 2.76637L28.3226 3.14381C28.2429 3.15848 28.1684 3.19717 28.109 3.25451C27.9637 3.40789 27.9637 3.65729 28.109 3.81067L29.898 5.6272C29.9866 5.71789 30.0269 5.8486 30.0055 5.97662L29.5797 8.54003C29.5658 8.62672 29.5797 8.71342 29.6175 8.79077C29.7174 8.98148 29.9435 9.05485 30.128 8.95615L32.3315 7.73846C32.3347 7.7366 32.338 7.73478 32.3413 7.73303C32.4404 7.67995 32.5578 7.67769 32.6594 7.72626C32.6673 7.73002 32.6751 7.73409 32.6828 7.73846L34.8698 8.94815C34.9455 8.98816 35.0302 9.00149 35.1136 8.98816C35.3159 8.95348 35.4523 8.75609 35.4231 8.5427L34.9961 5.97929C34.9734 5.84993 35.0139 5.71789 35.1036 5.62853L36.8838 3.812C37.0215 3.67597 37.0392 3.45323 36.9241 3.29585C36.8636 3.21184 36.7727 3.15715 36.674 3.14248L34.2179 2.7677C34.0954 2.74904 33.9892 2.66768 33.9335 2.55031ZM32.4054 4.83683C32.4364 4.81536 32.4669 4.79334 32.4969 4.77078C32.5287 4.79475 32.5611 4.81813 32.594 4.84087C32.5617 4.92596 32.5333 5.01226 32.509 5.09945C32.5033 5.09945 32.4977 5.09946 32.492 5.09948C32.4673 5.0108 32.4384 4.92314 32.4054 4.83683ZM31.4561 2.33573C31.4527 2.33391 31.4492 2.33209 31.4458 2.33026L31.4674 2.34166C31.4637 2.33969 31.4599 2.33772 31.4561 2.33573Z" fill="white"/>
<circle cx="32.5" cy="5.14286" r="0.642857" fill="white"/>
</svg>
