<svg width="80" height="80" viewBox="0 0 80 80" fill="none" xmlns="http://www.w3.org/2000/svg">
<g clip-path="url(#clip0_1309_7052)">
<g opacity="0.05">
<path d="M47.7654 78.5004C26.3538 82.9619 5.30321 69.173 0.839901 47.7615C-3.62159 26.3499 10.1691 5.30111 31.5807 0.837807C52.9922 -3.62369 74.041 10.1652 78.5025 31.5768C82.964 52.9883 69.1769 74.0371 47.7654 78.5004Z" fill="#FF0879"/>
</g>
<g opacity="0.1">
<path d="M45.736 68.7523C29.7 72.0948 13.9324 61.7663 10.5917 45.7303C7.24923 29.6943 17.5796 13.9304 33.6156 10.5879C49.6515 7.24538 65.4155 17.5739 68.758 33.6099C72.1005 49.6459 61.7737 65.4116 45.736 68.7523Z" fill="#FF0879"/>
</g>
<g opacity="0.15">
<path d="M44.0426 60.6436C32.4772 63.0539 21.1058 55.6054 18.6955 44.04C16.2852 32.4746 23.7356 21.105 35.301 18.6947C46.8664 16.2844 58.2359 23.7329 60.6462 35.2984C63.0565 46.8638 55.608 58.2351 44.0426 60.6454V60.6436Z" fill="#FF0879"/>
</g>
<g opacity="0.2">
<path d="M42.5975 53.6865C34.8679 55.297 27.2688 50.3204 25.6584 42.5908C24.0479 34.863 29.0262 27.264 36.7559 25.6535C44.4855 24.043 52.0827 29.0213 53.6932 36.7492C55.3037 44.4788 50.3271 52.076 42.5975 53.6865Z" fill="#FF0879"/>
</g>
<path d="M31.4794 41.3758C30.5363 36.8526 33.4399 32.4202 37.9631 31.4771C42.488 30.534 46.9187 33.4376 47.8618 37.9608C48.8048 42.4839 45.9012 46.9164 41.3781 47.8595C36.8549 48.8026 32.4225 45.899 31.4794 41.3758Z" fill="#FF0879"/>
<path d="M42.8065 38.679H43.0821C43.2345 38.679 43.3578 38.5557 43.3578 38.4033C43.3578 38.251 43.2345 38.1277 43.0821 38.1277H42.4093L41.9015 37.2825C41.702 36.9488 41.3411 36.7457 40.953 36.7457H38.024C37.6359 36.7457 37.2768 36.9488 37.0755 37.2825L36.5676 38.1277H35.8948C35.7424 38.1277 35.6191 38.251 35.6191 38.4033C35.6191 38.5557 35.7424 38.679 35.8948 38.679H36.1705L35.8386 39.1215C35.6953 39.3119 35.6173 39.5459 35.6173 39.7853V40.8898C35.6173 41.1945 35.864 41.4429 36.1705 41.4429V41.7186C36.1705 42.0233 36.4171 42.2718 36.7236 42.2718H37.2768C37.5815 42.2718 37.8299 42.0251 37.8299 41.7186V41.4429H41.1452V41.7186C41.1452 42.0233 41.3919 42.2718 41.6984 42.2718H42.2515C42.5562 42.2718 42.8047 42.0251 42.8047 41.7186V41.4429C43.1094 41.4429 43.3578 41.1963 43.3578 40.8898V39.7853C43.3578 39.5459 43.2798 39.3138 43.1366 39.1215L42.8047 38.679H42.8065ZM36.8651 40.6123C36.6366 40.6123 36.4498 40.4273 36.4498 40.197C36.4498 39.9667 36.6347 39.7817 36.8651 39.7817C37.0954 39.7817 37.2804 39.9667 37.2804 40.197C37.2804 40.4273 37.0954 40.6123 36.8651 40.6123ZM41.6893 38.4469C41.4626 38.5974 41.196 38.679 40.9221 38.679H38.0584C37.7864 38.679 37.5198 38.5992 37.2931 38.4469L37.1008 38.3181L37.5524 37.5654C37.6522 37.3986 37.8317 37.297 38.0258 37.297H40.9548C41.1488 37.297 41.3284 37.3986 41.4281 37.5654L41.8797 38.3181L41.6875 38.4469H41.6893ZM42.1155 40.6123C41.887 40.6123 41.7002 40.4273 41.7002 40.197C41.7002 39.9667 41.8852 39.7817 42.1155 39.7817C42.3458 39.7817 42.5308 39.9667 42.5308 40.197C42.5308 40.4273 42.3458 40.6123 42.1155 40.6123Z" fill="white"/>
</g>
<defs>
<clipPath id="clip0_1309_7052">
<rect width="79.3402" height="79.3384" fill="white"/>
</clipPath>
</defs>
</svg>
