<svg width="15" height="16" viewBox="0 0 15 16" fill="none" xmlns="http://www.w3.org/2000/svg">
<path fill-rule="evenodd" clip-rule="evenodd" d="M7.23803 8.51237C7.11934 8.63328 7.11035 8.86589 7.2758 9.02831C7.40108 9.1513 7.47213 9.16929 7.50228 9.17293C7.53803 9.17724 7.5942 9.17079 7.70707 9.11688L9.11055 8.43406C9.27564 8.35505 9.48331 8.28344 9.72305 8.31302C9.96809 8.34325 10.1854 8.47093 10.3859 8.66778C10.8222 9.09603 10.8711 9.79413 10.4437 10.2295L9.80075 10.8845C9.33384 11.3601 8.56536 11.3273 8.08478 10.8555C7.9376 10.711 7.93312 10.4769 8.07478 10.3326C8.21644 10.1883 8.45059 10.1884 8.59777 10.3329C8.80655 10.5379 9.1054 10.5266 9.26775 10.3612L9.91069 9.7063C10.0304 9.58431 10.0408 9.35511 9.87293 9.19035C9.7501 9.06977 9.67869 9.05086 9.64677 9.04692C9.60966 9.04234 9.55233 9.04893 9.44168 9.10177L8.03817 9.7846C7.8753 9.86255 7.66824 9.93605 7.42802 9.90707C7.18208 9.87741 6.96443 9.74881 6.76281 9.55087C6.33129 9.12726 6.27652 8.42563 6.70502 7.98913L7.34797 7.33418C7.81489 6.85856 8.58337 6.89141 9.06394 7.36318C9.21113 7.50767 9.21561 7.74178 9.07395 7.88608C8.93229 8.03038 8.69813 8.03023 8.55095 7.88574C8.34217 7.68079 8.04333 7.69204 7.88098 7.85742L7.23803 8.51237Z" fill="white"/>
<path fill-rule="evenodd" clip-rule="evenodd" d="M6.63399 7.20447C6.78428 7.05138 7.03021 7.04911 7.1833 7.19939L10.5096 10.4648C10.6627 10.615 10.665 10.861 10.5147 11.0141C10.3644 11.1671 10.1184 11.1694 9.96536 11.0191L6.63907 7.75377C6.48598 7.60349 6.48371 7.35756 6.63399 7.20447Z" fill="white"/>
<g clip-path="url(#clip0_136_669)">
<path fill-rule="evenodd" clip-rule="evenodd" d="M10.5147 2.1473C10.5145 2.14715 10.5148 2.14745 10.5147 2.1473L13.8342 5.4522C15.4059 7.03234 15.4074 9.5861 13.8332 11.1603L10.6243 14.3692L10.6233 14.3702C9.04314 15.9419 6.48939 15.9434 4.91517 14.3692L1.60399 11.058C0.800699 10.2547 0.369963 9.14762 0.420644 8.0073L0.420733 8.00535L0.596219 4.3494C0.683446 2.6136 2.07092 1.22568 3.81541 1.14674C3.8157 1.14672 3.81599 1.14671 3.81628 1.1467L7.46704 0.971464C7.46744 0.971443 7.46784 0.971422 7.46824 0.971402C8.60428 0.912401 9.71225 1.34511 10.5147 2.1473ZM9.7394 2.92258C9.15336 2.33654 8.3465 2.02343 7.52424 2.06639L7.52193 2.0665L3.86721 2.24193L3.86557 2.24201C2.68688 2.29505 1.75051 3.23107 1.69128 4.40386C1.69127 4.40405 1.69129 4.40367 1.69128 4.40386L1.51598 8.05598C1.51596 8.05629 1.51595 8.05659 1.51594 8.0569C1.47918 8.8898 1.79399 9.69742 2.37927 10.2827L5.69045 13.5939C6.83518 14.7386 8.69595 14.7403 9.84958 13.5933C9.84941 13.5935 9.84975 13.5932 9.84958 13.5933L13.0579 10.385C14.2025 9.24044 14.2043 7.37996 13.0577 6.2263C13.0574 6.226 13.0571 6.2257 13.0568 6.22541L9.74026 2.92343L9.7394 2.92258Z" fill="white"/>
<path fill-rule="evenodd" clip-rule="evenodd" d="M4.54856 4.18206C4.04259 4.18206 3.63242 4.59223 3.63242 5.09819C3.63242 5.60416 4.04259 6.01433 4.54856 6.01433C5.05452 6.01433 5.46469 5.60416 5.46469 5.09819C5.46469 4.59223 5.05452 4.18206 4.54856 4.18206ZM2.84717 5.09819C2.84717 4.15854 3.60891 3.3968 4.54856 3.3968C5.48821 3.3968 6.24995 4.15854 6.24995 5.09819C6.24995 6.03784 5.48821 6.79958 4.54856 6.79958C3.60891 6.79958 2.84717 6.03784 2.84717 5.09819Z" fill="white"/>
</g>
<defs>
<clipPath id="clip0_136_669">
<rect width="14.5833" height="14.5833" fill="white" transform="translate(0.416626 0.966307)"/>
</clipPath>
</defs>
</svg>
