<svg width="27" height="27" viewBox="0 0 27 27" fill="none" xmlns="http://www.w3.org/2000/svg">
<path fill-rule="evenodd" clip-rule="evenodd" d="M15.4012 5.10857C15.4012 4.60284 15.8112 4.19287 16.3169 4.19287H23.6425C24.1482 4.19287 24.5582 4.60284 24.5582 5.10857C24.5582 5.61429 24.1482 6.02427 23.6425 6.02427H16.3169C15.8112 6.02427 15.4012 5.61429 15.4012 5.10857Z" fill="white"/>
<path fill-rule="evenodd" clip-rule="evenodd" d="M15.4012 8.77117C15.4012 8.26544 15.8112 7.85547 16.3169 7.85547H19.9797C20.4854 7.85547 20.8954 8.26544 20.8954 8.77117C20.8954 9.27689 20.4854 9.68686 19.9797 9.68686H16.3169C15.8112 9.68686 15.4012 9.27689 15.4012 8.77117Z" fill="white"/>
<path fill-rule="evenodd" clip-rule="evenodd" d="M13.2645 2.36142C7.36038 2.36142 2.5814 7.14041 2.5814 13.0446C2.5814 18.9487 7.36038 23.7277 13.2645 23.7277C19.1687 23.7277 23.9477 18.9487 23.9477 13.0446C23.9477 12.5388 24.3576 12.1289 24.8634 12.1289C25.3691 12.1289 25.7791 12.5388 25.7791 13.0446C25.7791 19.9602 20.1801 25.5591 13.2645 25.5591C6.34892 25.5591 0.75 19.9602 0.75 13.0446C0.75 6.12895 6.34892 0.530029 13.2645 0.530029C13.7703 0.530029 14.1802 0.940001 14.1802 1.44573C14.1802 1.95145 13.7703 2.36142 13.2645 2.36142Z" fill="white"/>
<path fill-rule="evenodd" clip-rule="evenodd" d="M22.9949 22.775C23.3525 22.4174 23.9323 22.4174 24.2899 22.775L26.7318 25.2169C27.0894 25.5745 27.0894 26.1543 26.7318 26.5119C26.3742 26.8695 25.7944 26.8695 25.4368 26.5119L22.9949 24.07C22.6373 23.7124 22.6373 23.1326 22.9949 22.775Z" fill="white"/>
</svg>
